<svg width="24" height="24" viewBox="0 0 24 24" fill="none" xmlns="http://www.w3.org/2000/svg">
<path fill-rule="evenodd" clip-rule="evenodd" d="M8.34146 2.00009C7.51304 2.00009 6.84146 2.67166 6.84146 3.50009C6.84146 4.32852 7.51304 5.00009 8.34146 5.00009H18.7578V14.4234C18.7578 15.2519 19.4294 15.9234 20.2578 15.9234C21.0863 15.9234 21.7578 15.2519 21.7578 14.4234V4.50009C21.7578 3.11938 20.6386 2.00009 19.2578 2.00009H8.34146ZM4 6.91473H15.122C16.2265 6.91473 17.122 7.81016 17.122 8.91473V20.0367C17.122 21.1412 16.2265 22.0367 15.122 22.0367H4C2.89543 22.0367 2 21.1412 2 20.0367V8.91473C2 7.81016 2.89543 6.91473 4 6.91473Z" fill="#6A6A6A"/>
</svg>
